<?xml version="1.0" encoding="utf-8"?>
<!DOCTYPE svg PUBLIC "-//W3C//DTD SVG 1.0//EN" "http://www.w3.org/TR/2001/REC-SVG-20010904/DTD/svg10.dtd">
<svg version="1.0" xmlns="http://www.w3.org/2000/svg" width="225px" height="225px" viewBox="0 0 225 225" preserveAspectRatio="xMidYMid meet">
 <g fill="#00c7fd">
  <path d="M0 112.50 l0 -112.50 112.50 0 112.50 0 0 112.50 0 112.50 -112.50 0 -112.50 0 0 -112.50z m74.15 63.80 c1.50 -0.65 3.80 -2.15 5 -3.25 1.60 -1.50 2.65 -2.05 3.80 -2.05 l1.55 0 0 3 0 3 1.80 0 1.75 0 -0.15 -13.10 -0.15 -13.15 -1.40 -3.05 c-2.50 -5.40 -6.95 -8.55 -12.80 -9.05 -3.95 -0.35 -7.70 0.55 -11.95 2.90 -2.90 1.60 -3.55 2.15 -3.10 2.70 0.45 0.55 1.15 0.35 3.70 -1 2.40 -1.25 4.15 -1.75 7.05 -2 9.55 -0.90 14.70 3.05 14.75 11.30 l0 3.30 -9.35 0.30 c-10.35 0.25 -13.10 0.85 -16.50 3.30 -4.45 3.20 -5.55 7.80 -2.95 12.25 3.30 5.70 11.85 7.75 18.95 4.60z m52.15 -0.05 c3.55 -1.55 8 -6.05 9.95 -10.05 1.35 -2.70 1.45 -3.40 1.45 -8.20 0 -4.60 -0.15 -5.60 -1.25 -8 -1.90 -4 -5.30 -7.50 -9.25 -9.55 -3.05 -1.50 -3.80 -1.70 -7.40 -1.70 -3.40 0 -4.50 0.20 -6.80 1.35 -1.50 0.75 -3.55 2.15 -4.50 3.10 -1.35 1.40 -2.15 1.75 -3.60 1.80 l-1.90 0 0 -12 0 -12 -2 0 -2 0 0 28 0 28 2 0 2 0 0 -2.75 0 -2.75 1.65 0 c1.05 0 2.05 0.40 2.55 0.95 1.50 1.65 4.50 3.50 7.35 4.55 3.40 1.30 7.80 1 11.75 -0.75z m42.95 0.30 c5.15 -2.30 8.40 -6.20 8.35 -10.10 -0.05 -2.80 -2.10 -6.15 -4.75 -7.65 -2.55 -1.45 -3.35 -1.65 -11.70 -2.50 -9.15 -0.95 -10.65 -2 -10.65 -7.35 0 -3.65 1.05 -5.30 4.35 -6.80 2.55 -1.15 3.20 -1.25 7.95 -1.05 4.55 0.20 5.50 0.40 8.50 1.90 2.60 1.25 3.40 1.50 3.75 0.95 0.55 -0.90 0.25 -1.25 -2.35 -2.75 -2.50 -1.45 -8.55 -3.20 -11.25 -3.20 -2.35 0 -6.65 1.30 -8.95 2.75 -6.85 4.35 -7.20 12.55 -0.65 16.15 2.55 1.40 7.90 2.60 11.80 2.60 4 0 7.35 0.90 9 2.40 1.25 1.20 1.35 1.60 1.35 5 0 3.50 -0.10 3.80 -1.65 5.35 -2.15 2.15 -5.05 2.95 -10.60 2.95 -5 0 -8.25 -0.85 -11.85 -3.15 -2.20 -1.40 -2.25 -1.40 -2.90 -0.40 -0.75 1.20 -0.30 1.65 3.65 3.65 5.70 2.95 13.60 3.45 18.60 1.25z m-125.75 -27.55 l0 -28 -2 0 -2 0 0 28 0 28 2 0 2 0 0 -28z m109.65 -42.90 c3.10 -1.10 7.60 -4.05 7.60 -5 0 -0.30 -0.90 -1.20 -2 -2 l-1.95 -1.50 -2.75 1.55 c-2.35 1.35 -3.35 1.60 -7.15 1.75 -3.40 0.15 -5 0 -6.80 -0.65 -4.10 -1.55 -7.10 -5.25 -7.10 -8.85 l0 -1.65 16.25 0.20 16.25 0.15 0 -2.80 c0 -3.15 -1.45 -7.90 -3.25 -10.80 -3.95 -6.30 -12.70 -10.30 -19.50 -8.90 -7.15 1.45 -13.80 7.40 -15.90 14.15 -1.25 4.05 -1.35 5.40 -0.60 8.85 0.90 4.30 2.30 7 5.45 10.30 5.60 5.95 13.75 7.90 21.45 5.20z m-33.15 -2.55 c0 -3.80 -0.20 -4.05 -3.25 -4.05 -1.05 0 -2.20 -0.45 -3.10 -1.20 l-1.40 -1.20 -0.15 -11.30 -0.15 -11.30 4 0 4.05 0 0 -3.25 0 -3.25 -4 0 -4 0 0 -8 0 -8 -4.05 0 -4 0 0.20 22.15 c0.10 15.10 0.35 22.65 0.75 23.90 0.85 2.60 3.30 5.75 5.20 6.80 1.75 0.90 6.30 2.05 8.55 2.10 1.35 0.05 1.35 0.05 1.35 -3.40z m-72.50 -16.30 l0 -19.25 -4 0 -4 0 0 19.25 0 19.25 4 0 4 0 0 -19.25z m17.60 6.40 c0.15 -12.70 0.15 -12.95 1.40 -15.15 3.45 -6.20 14.70 -6.85 18.75 -1.10 l1.50 2.20 0.15 13.45 0.15 13.45 4 0 4 0 -0.15 -13.35 c-0.15 -12.45 -0.25 -13.60 -1.30 -16.20 -2.25 -5.60 -8 -9.55 -14.10 -9.55 -3.35 0 -6 1.05 -9.10 3.65 -1.60 1.35 -2.80 1.95 -3.85 1.95 -1.50 0 -1.55 -0.05 -1.55 -2.50 l0 -2.50 -4 0 -4 0 0 19.25 0 19.25 3.95 0 4 0 0.15 -12.85z m117.40 -16.15 l0 -29 -4 0 -4 0 0 29 0 29 4 0 4 0 0 -29z m-134.60 -23.60 l-0.15 -4.15 -4.10 -0.15 -4.15 -0.15 0 4.30 0 4.25 4.25 0 4.30 0 -0.15 -4.10z"/>
  <path d="M62.10 174.55 c-3.80 -1.80 -4.60 -3.20 -4.60 -8.10 0 -3.40 0.10 -3.65 1.70 -5.15 2.40 -2.30 5.35 -2.80 16.15 -2.80 l9.30 0 -0.30 2.95 c-0.50 5.65 -3.75 10.50 -8.50 12.60 -3.75 1.65 -10.75 1.90 -13.75 0.50z"/>
  <path d="M111 173.70 c-5.05 -2.85 -7.25 -6.15 -8.05 -12.15 -1.20 -8.80 1.95 -15.70 8.50 -18.75 3.15 -1.45 11.85 -1.55 14.65 -0.10 2.50 1.20 5.15 4 6.50 6.80 1.50 3.10 1.90 12.25 0.70 15.85 -1.25 3.70 -3.80 6.80 -6.85 8.35 -2.35 1.15 -3.20 1.30 -7.90 1.30 -4.75 0 -5.55 -0.15 -7.55 -1.30z"/>
  <path d="M143.65 84.65 l-10.15 -0.15 0 -2.30 c0 -3.70 2.50 -6.65 6.70 -7.95 5.35 -1.65 12.55 -0.40 15.40 2.65 1.90 2 2.40 3.25 2.40 5.80 l0 2.30 -2.10 -0.10 c-1.20 -0.10 -6.70 -0.20 -12.25 -0.25z"/>
 </g>
 <g fill="#ffffff">
  <path d="M158.20 179.45 c-1.95 -0.25 -4.80 -0.85 -6.30 -1.45 -3.20 -1.20 -7.30 -3.70 -7.70 -4.70 -0.30 -0.75 2.50 -5.30 3.20 -5.30 0.20 0 1.45 0.80 2.80 1.75 6.75 4.80 16.40 5.25 20.65 1 1.35 -1.35 1.65 -2.05 1.65 -3.85 0 -4.05 -2.90 -5.55 -12 -6.10 -10.30 -0.65 -15 -4.20 -15 -11.40 0 -4.65 1.65 -7.70 5.55 -10.15 6.90 -4.40 18.80 -3.30 26.15 2.50 0.95 0.70 0.95 0.80 0.05 2.40 -1.70 3.20 -2.20 3.65 -3.15 2.95 -6.60 -4.65 -12.75 -5.80 -17.95 -3.40 -3.60 1.70 -4.95 4.50 -3.60 7.45 0.95 2.15 3.10 2.90 10.10 3.65 8.35 0.85 9.15 1.05 11.70 2.50 3.75 2.15 5.90 7.60 4.70 12.05 -1.95 7.15 -10.35 11.25 -20.85 10.10z"/>
  <path d="M61.30 178.70 c-3.70 -1.15 -6.10 -2.95 -7.65 -5.55 -1.20 -2.05 -1.40 -2.95 -1.40 -6.15 0 -4.40 1.10 -6.65 4.40 -9.05 3.40 -2.45 6.15 -3.05 16.50 -3.30 l9.35 -0.30 0 -1.70 c0 -2.30 -1.25 -5.05 -3.15 -7.05 -4.10 -4.25 -13 -3.70 -18.75 1.15 -0.90 0.75 -1.75 1.20 -2 1.05 -0.25 -0.15 -1.05 -1.15 -1.85 -2.30 -1.35 -1.90 -1.35 -2.05 -0.55 -2.95 0.50 -0.55 2.80 -1.95 5.15 -3.15 l4.30 -2.15 6.05 0 c5.25 0 6.40 0.15 8.55 1.15 3.40 1.55 5.90 4.10 7.60 7.80 l1.40 3.05 0 14.75 0 14.75 -3 -0.05 -3 0 -0.15 -3.15 -0.15 -3.15 -2.25 2.10 c-3.50 3.20 -7.05 4.60 -12.45 4.80 -3.15 0.15 -5.25 -0.05 -6.95 -0.60z m13.05 -6.20 c4.10 -1.75 7.35 -5.95 8.40 -10.85 l0.35 -1.65 -7.75 0 c-9.25 0 -12.35 0.60 -14.65 2.80 -1.40 1.30 -1.70 1.95 -1.70 3.65 0 3.35 1.10 4.95 4.60 6.60 2.75 1.25 7.05 1.05 10.75 -0.55z"/>
  <path d="M113 178.50 c-1.50 -0.55 -2.75 -1 -2.85 -1 -0.05 0 -1.35 -1 -2.85 -2.25 l-2.75 -2.20 -0.15 2.85 -0.15 2.85 -3.25 0 -3.25 0 -0.15 -29.60 -0.10 -29.65 3.50 0 3.50 0 0 12 c0 6.60 0.15 12 0.40 12 0.20 0 1.15 -0.80 2.10 -1.80 0.95 -0.95 3 -2.35 4.50 -3.10 2.50 -1.20 3.30 -1.35 8.30 -1.35 5.30 0 5.65 0.05 8.90 1.70 8 4.10 12.10 12.65 10.75 22.45 -0.70 4.90 -2.50 8.65 -6 12.20 -3.90 3.95 -7.25 5.40 -13.20 5.70 -3.65 0.20 -5 0.05 -7.25 -0.80z m11.95 -6.30 c5.10 -2.55 7.85 -8 7.45 -14.90 -0.35 -6.15 -3.10 -10.80 -7.80 -13.10 -2.70 -1.35 -8.60 -1.30 -11.65 0.10 -6.10 2.80 -9.40 9.35 -8.40 16.55 0.75 5.15 3.15 8.65 7.95 11.35 3.25 1.85 8.70 1.85 12.45 0z"/>
  <path d="M38.25 178.60 c-0.15 -0.15 -0.25 -13.50 -0.25 -29.70 l0 -29.40 3.50 0 3.50 0 0 29.65 0 29.60 -3.25 0.05 c-1.75 0.05 -3.35 -0.05 -3.50 -0.20z"/>
  <path d="M139.75 108.05 c-4.45 -1.30 -6.70 -2.65 -9.65 -5.75 -11.75 -12.45 -5.15 -33 11.75 -36.30 6.60 -1.30 14.45 1.05 19.25 5.80 4 3.95 6.40 10.70 6 16.85 l-0.20 2.90 -16.20 -0.15 c-16 -0.15 -16.20 -0.15 -15.90 0.85 0.85 2.60 3.55 5.25 6.60 6.40 4.05 1.60 8.35 0.95 12.60 -1.90 1.55 -1.05 2.85 -1.60 3.20 -1.35 2.65 1.55 7.15 5.35 7 5.80 -0.40 0.90 -4.80 4.25 -7.10 5.35 -5.15 2.55 -11.85 3.10 -17.35 1.50z m16.75 -25.35 c0 -2.35 -2.90 -5.40 -6.35 -6.70 -3.20 -1.20 -5.15 -1.25 -8.45 -0.25 -2.70 0.85 -3.90 1.70 -5.60 4.10 -2.20 3.10 -2.20 3.10 9.05 3.30 5.55 0.05 10.40 0.15 10.75 0.25 0.30 0.05 0.60 -0.25 0.60 -0.70z"/>
  <path d="M113 107.80 c-1.50 -0.35 -3.50 -1 -4.40 -1.45 -1.90 -1.05 -4.35 -4.20 -5.20 -6.80 -0.40 -1.25 -0.65 -9.05 -0.75 -25.40 l-0.20 -23.65 5.50 0 5.55 0 0 8 0 8 4 0 4 0 0 4.75 0 4.75 -4.05 0 -4 0 0.15 9.80 0.15 9.80 1.40 1.20 c0.90 0.75 2.05 1.20 3.10 1.20 3.20 0 3.25 0.10 3.25 5.55 l0 4.95 -2.85 -0.05 c-1.60 0 -4.15 -0.30 -5.65 -0.65z"/>
  <path d="M38 87.25 l0 -20.75 5.50 0 5.50 0 0 20.75 0 20.75 -5.50 0 -5.50 0 0 -20.75z"/>
  <path d="M55.50 87.25 l0 -20.75 5.50 0 5.50 0 0 2.55 0 2.50 2.40 -2 c3.45 -2.90 6.10 -3.80 10.85 -3.75 5.10 0.10 8.80 1.45 11.70 4.30 4.50 4.50 5 6.85 5.05 24.05 l0.05 13.60 -5.50 0.15 -5.50 0.15 -0.15 -13.45 -0.15 -13.45 -1.40 -2.10 c-1.55 -2.30 -3.80 -3.55 -7.10 -3.90 -3.05 -0.35 -7.15 1.95 -8.75 4.85 -1.25 2.20 -1.25 2.45 -1.40 15.15 l-0.15 12.85 -5.50 0 -5.45 0 0 -20.75z"/>
  <path d="M173 77.50 l0 -30.50 5.50 0 5.50 0 0 30.50 0 30.50 -5.50 0 -5.50 0 0 -30.50z"/>
  <path d="M190.05 54.20 c-2.05 -1.70 -2.10 -4 -0.25 -5.90 1.45 -1.40 2.65 -1.60 4.35 -0.70 1.65 0.85 2.30 1.95 2.35 3.75 0 1.70 -0.95 2.95 -2.85 3.70 -1.70 0.65 -1.90 0.60 -3.60 -0.85z m4.90 -1.25 c0.95 -1.70 0.35 -3.85 -1.20 -4.55 -3.35 -1.50 -5.90 3.75 -2.65 5.45 1.75 0.85 3.05 0.55 3.85 -0.90z"/>
  <path d="M191 51 c0 -1.85 0.10 -2 1.45 -2 1.50 0 2.55 1.40 1.55 2 -0.30 0.20 -0.40 0.70 -0.20 1.15 0.35 0.95 -0.55 1.15 -1 0.25 -0.25 -0.50 -0.35 -0.50 -0.60 0 -0.60 1.25 -1.20 0.55 -1.20 -1.40z m2 -0.75 c0 -0.40 -0.20 -0.75 -0.50 -0.75 -0.25 0 -0.50 0.35 -0.50 0.75 0 0.40 0.25 0.75 0.50 0.75 0.30 0 0.50 -0.35 0.50 -0.75z"/>
 </g>
 <g fill="#0068b5">
  <path d="M38 53.75 l0 -5.80 5.65 0.15 5.60 0.15 0.15 5.65 0.15 5.60 -5.80 0 -5.75 0 0 -5.75z"/>
 </g>
</svg>